<svg width="17" height="19" viewBox="0 0 17 19" fill="none" xmlns="http://www.w3.org/2000/svg">
<g clip-path="url(#clip0_366_2683)">
<path d="M13.6913 18.2665C12.911 18.2665 12.2471 17.7147 12.084 16.9515C12.0025 16.5406 11.9093 16.0474 11.8045 15.4956C11.525 13.9105 11.0125 13.3 9.90602 13.253H8.75297V12.1259H10.0108C11.3153 12.1259 12.1423 11.257 12.1423 9.93028C12.1423 8.42741 11.2571 7.76991 9.97591 7.76991C9.74297 7.76991 8.2172 7.76991 6.4585 7.76991V17.5973C6.4585 17.9025 6.21391 18.1374 5.92273 18.1374C5.61991 18.1374 5.38697 17.8908 5.38697 17.5973V7.76991C4.02426 7.76991 2.64991 7.76991 1.71814 7.76991C1.0892 7.76991 0.588379 7.26504 0.588379 6.63101C0.588379 6.63101 3.01097 6.63101 5.38697 6.63101V5.2573C5.37532 2.72121 7.07579 0.666504 9.16061 0.666504H12.6547C12.9576 0.666504 13.1905 0.913068 13.1905 1.2066C13.1905 1.50013 12.9459 1.74669 12.6547 1.74669H9.16061C7.66979 1.74669 6.44685 3.32001 6.44685 5.2573V6.60753C8.11238 6.60753 9.55661 6.60753 9.88273 6.60753C11.1756 6.60753 12.0258 6.9128 12.6198 7.55857C13.0857 8.06344 13.3536 8.85009 13.3536 9.75416C13.3536 11.2688 12.5616 12.2903 11.5716 12.7012V12.7482C12.2937 13.0534 12.7246 13.8871 12.9576 15.0847C13.109 15.8948 13.2487 16.5758 13.3652 17.1041C13.4933 17.6442 13.5981 18.0317 13.6913 18.2665Z" fill="#E33319"/>
<path d="M16.4164 9.88351V10.3179C16.4164 10.5175 16.2533 10.6819 16.0553 10.6819H15.6477C15.4497 10.6819 15.2866 10.5175 15.2866 10.3179V9.88351C15.2866 9.68391 15.4497 9.51953 15.6477 9.51953H16.0553C16.265 9.51953 16.4164 9.68391 16.4164 9.88351ZM16.3931 12.3492V17.844C16.3931 18.0436 16.23 18.208 16.032 18.208H15.6826C15.4846 18.208 15.3216 18.0436 15.3216 17.844V12.3492C15.3216 12.1496 15.4846 11.9852 15.6826 11.9852H16.032C16.2417 11.9852 16.3931 12.1496 16.3931 12.3492Z" fill="#E33319"/>
</g>
<defs>
<clipPath id="clip0_366_2683">
<rect width="15.84" height="17.6" fill="white" transform="translate(0.576172 0.666504)"/>
</clipPath>
</defs>
</svg>
