<svg width="20" height="20" viewBox="0 0 20 20" fill="none" xmlns="http://www.w3.org/2000/svg">
<path fill-rule="evenodd" clip-rule="evenodd" d="M18.2058 5.85107H1.61275C1.04029 5.85107 0.575684 6.31568 0.575684 6.88814V8.96227C0.575684 9.53473 1.04029 9.99934 1.61275 9.99934H18.2058C18.7783 9.99934 19.2429 9.53473 19.2429 8.96227V6.88814C19.2429 6.31568 18.7783 5.85107 18.2058 5.85107Z" stroke="#E33319" stroke-linecap="round" stroke-linejoin="round"/>
<path d="M9.90916 19.3329V5.85107" stroke="#E33319" stroke-linecap="round" stroke-linejoin="round"/>
<path d="M13.7425 4.41162C12.6246 5.57521 10.8647 5.85107 10.0122 5.85107" stroke="#E33319" stroke-linecap="round" stroke-linejoin="round"/>
<path d="M10.0121 5.85094C10.0121 5.85094 9.4998 2.61945 10.7598 1.30859" stroke="#E33319" stroke-linecap="round" stroke-linejoin="round"/>
<path d="M13.7423 4.41138C14.5657 3.55476 14.5657 2.16509 13.7423 1.30848C12.9189 0.451862 11.5842 0.451862 10.7607 1.30848" stroke="#E33319" stroke-linecap="round" stroke-linejoin="round"/>
<path d="M6.07666 4.41162C7.19462 5.57521 8.95452 5.85107 9.80699 5.85107" stroke="#E33319" stroke-linecap="round" stroke-linejoin="round"/>
<path d="M9.80669 5.85094C9.80669 5.85094 10.319 2.61945 9.05897 1.30859" stroke="#E33319" stroke-linecap="round" stroke-linejoin="round"/>
<path d="M6.07656 4.41138C5.25313 3.55476 5.25313 2.16509 6.07656 1.30848C6.89999 0.451862 8.23469 0.451862 9.05812 1.30848" stroke="#E33319" stroke-linecap="round" stroke-linejoin="round"/>
<path d="M17.1688 9.99902V18.2956C17.1688 18.868 16.7042 19.3326 16.1318 19.3326H3.68697C3.11451 19.3326 2.6499 18.868 2.6499 18.2956V9.99902" stroke="#E33319" stroke-linecap="round" stroke-linejoin="round"/>
</svg>
