<svg width="21" height="20" viewBox="0 0 21 20" fill="none" xmlns="http://www.w3.org/2000/svg">
<path fill-rule="evenodd" clip-rule="evenodd" d="M12.9728 19.3327H3.15C2.00408 19.3327 1.07593 18.4045 1.07593 17.2586V7.43579C1.07593 6.88616 1.29474 6.35831 1.68363 5.96942L6.37934 1.27372C6.76822 0.88483 7.29608 0.666016 7.84571 0.666016H17.6685C18.8144 0.666016 19.7426 1.59416 19.7426 2.74009V12.5629C19.7426 13.1125 19.5238 13.6404 19.1349 14.0293L14.4392 18.725C14.0503 19.1139 13.5224 19.3327 12.9728 19.3327V19.3327Z" stroke="#E33319" stroke-linecap="round" stroke-linejoin="round"/>
<path d="M19.6907 13.1106H9.37217C8.22624 13.1106 7.2981 12.1825 7.2981 11.0366V0.74707" stroke="#E33319" stroke-linecap="round" stroke-linejoin="round"/>
<path d="M1.15063 6.88818H11.4463C12.5923 6.88818 13.5204 7.81633 13.5204 8.96226V19.2642" stroke="#E33319" stroke-linecap="round" stroke-linejoin="round"/>
</svg>
