<svg width="24" height="24" viewBox="0 0 24 24" fill="none" xmlns="http://www.w3.org/2000/svg">
<path d="M13.91 10.09C14.4165 10.5965 14.7011 11.2836 14.7011 12C14.7011 12.7164 14.4165 13.4034 13.91 13.91C13.4034 14.4165 12.7164 14.7011 12 14.7011C11.2836 14.7011 10.5965 14.4165 10.09 13.91C9.58341 13.4034 9.29883 12.7164 9.29883 12C9.29883 11.6453 9.3687 11.294 9.50444 10.9663C9.64019 10.6386 9.83915 10.3408 10.09 10.09C10.3408 9.83915 10.6386 9.64019 10.9663 9.50444C11.294 9.3687 11.6453 9.29883 12 9.29883C12.7164 9.29883 13.4034 9.58341 13.91 10.09" stroke="white" stroke-width="1.5" stroke-linecap="round" stroke-linejoin="round"/>
<path d="M5.24993 12C5.24993 12.297 5.27693 12.594 5.31293 12.882L3.72493 14.124C3.55461 14.2574 3.43817 14.4478 3.39702 14.6602C3.35586 14.8725 3.39276 15.0926 3.50093 15.28L4.91293 17.723C5.02107 17.9101 5.19304 18.0519 5.39729 18.1224C5.60155 18.193 5.82439 18.1875 6.02493 18.107L7.44693 17.536C7.58536 17.4824 7.73477 17.4634 7.8822 17.4807C8.02963 17.4979 8.17062 17.5509 8.29293 17.635C8.51293 17.781 8.74093 17.915 8.97693 18.035C9.24693 18.172 9.44293 18.417 9.48593 18.717L9.70293 20.23C9.76593 20.672 10.1449 21 10.5909 21H13.4079C13.6238 21 13.8325 20.9221 13.9956 20.7807C14.1587 20.6393 14.2654 20.4437 14.2959 20.23L14.5129 18.718C14.5366 18.5712 14.5955 18.4323 14.6847 18.3134C14.7739 18.1944 14.8907 18.0989 15.0249 18.035C15.2599 17.917 15.4869 17.784 15.7059 17.639C15.8286 17.554 15.9701 17.5002 16.1183 17.4825C16.2664 17.4647 16.4167 17.4834 16.5559 17.537L17.9749 18.107C18.1755 18.1873 18.3983 18.1927 18.6025 18.1221C18.8067 18.0516 18.9786 17.9099 19.0869 17.723L20.4989 15.28C20.6071 15.0926 20.644 14.8725 20.6028 14.6602C20.5617 14.4478 20.4453 14.2574 20.2749 14.124L18.6869 12.882C18.7229 12.594 18.7499 12.297 18.7499 12C18.7499 11.703 18.7229 11.406 18.6869 11.118L20.2749 9.876C20.4453 9.74261 20.5617 9.55222 20.6028 9.33984C20.644 9.12745 20.6071 8.90735 20.4989 8.72L19.0869 6.277C18.9788 6.08991 18.8068 5.94809 18.6026 5.87755C18.3983 5.80702 18.1755 5.8125 17.9749 5.893L16.5559 6.463C16.4166 6.51634 16.2664 6.53492 16.1183 6.51715C15.9702 6.49938 15.8287 6.44578 15.7059 6.361C15.487 6.21555 15.2596 6.08332 15.0249 5.965C14.8907 5.90113 14.7739 5.8056 14.6847 5.68663C14.5955 5.56766 14.5366 5.4288 14.5129 5.282L14.2969 3.77C14.2664 3.55627 14.1597 3.36074 13.9966 3.2193C13.8335 3.07785 13.6248 2.99999 13.4089 3H10.5919C10.376 2.99999 10.1674 3.07785 10.0042 3.2193C9.84113 3.36074 9.7345 3.55627 9.70393 3.77L9.48593 5.284C9.46228 5.43026 9.40365 5.56865 9.31503 5.68739C9.22641 5.80613 9.11042 5.90171 8.97693 5.966C8.74093 6.086 8.51293 6.221 8.29293 6.366C8.17024 6.44971 8.02906 6.50236 7.88152 6.51943C7.73397 6.5365 7.58449 6.51748 7.44593 6.464L6.02493 5.893C5.82439 5.8125 5.60155 5.80702 5.39729 5.87755C5.19304 5.94809 5.02107 6.08991 4.91293 6.277L3.50093 8.72C3.39276 8.90735 3.35586 9.12745 3.39702 9.33984C3.43817 9.55222 3.55461 9.74261 3.72493 9.876L5.31293 11.118C5.27372 11.4104 5.25268 11.705 5.24993 12V12Z" stroke="white" stroke-width="1.5" stroke-linecap="round" stroke-linejoin="round"/>
</svg>
