<svg width="24" height="24" viewBox="0 0 24 24" fill="none" xmlns="http://www.w3.org/2000/svg">
<path fill-rule="evenodd" clip-rule="evenodd" d="M18.5 11.9634C18.5 12.3776 18.1642 12.7134 17.75 12.7134L5.75 12.7134C5.33579 12.7134 5 12.3776 5 11.9634C5 11.5492 5.33579 11.2134 5.75 11.2134L17.75 11.2134C18.1642 11.2134 18.5 11.5492 18.5 11.9634Z" fill="white"/>
<path fill-rule="evenodd" clip-rule="evenodd" d="M10.5669 7.14643C10.8598 7.43932 10.8598 7.91419 10.5669 8.20709L6.81065 11.9633L10.5669 15.7196C10.8598 16.0125 10.8598 16.4873 10.5669 16.7802C10.274 17.0731 9.79912 17.0731 9.50623 16.7802L5.21966 12.4937C4.92677 12.2008 4.92677 11.7259 5.21966 11.433L9.50623 7.14643C9.79912 6.85353 10.274 6.85353 10.5669 7.14643Z" fill="white"/>
</svg>
